<?xml version="1.0" standalone="no"?>
<!DOCTYPE svg PUBLIC "-//W3C//DTD SVG 20010904//EN"
 "http://www.w3.org/TR/2001/REC-SVG-20010904/DTD/svg10.dtd">
<svg version="1.0" xmlns="http://www.w3.org/2000/svg"
 width="847.000000pt" height="176.000000pt" viewBox="0 0 847.000000 176.000000"
 preserveAspectRatio="xMidYMid meet">

<g transform="translate(0.000000,176.000000) scale(0.100000,-0.100000)"
fill="#000000" stroke="none">
<path d="M397 1243 c-4 -3 -7 -192 -7 -420 l0 -413 105 0 105 0 0 170 0 170
95 0 95 0 2 -167 3 -168 103 -3 102 -3 0 421 0 421 -102 -3 -103 -3 -3 -152
-3 -153 -94 0 -95 0 0 155 0 155 -98 0 c-54 0 -102 -3 -105 -7z"/>
<path d="M2565 1237 c-3 -6 -4 -194 -3 -417 l3 -405 103 -3 102 -3 0 79 c0 77
0 78 38 115 l39 38 24 -33 c14 -18 49 -70 78 -115 l54 -83 108 0 c60 0 109 4
109 8 0 5 -29 51 -64 103 -150 218 -177 260 -174 268 2 5 51 62 111 127 59 64
107 121 107 126 0 4 -51 8 -112 7 l-113 -1 -95 -104 c-52 -57 -98 -104 -102
-104 -5 0 -8 92 -8 205 l0 205 -100 0 c-71 0 -102 -4 -105 -13z"/>
<path d="M4660 830 l0 -421 103 3 102 3 3 143 3 142 37 0 37 0 75 -145 75
-145 113 0 c75 0 112 4 112 11 0 6 -39 81 -86 166 -47 85 -85 155 -83 157 95
60 129 123 129 239 0 87 -16 136 -58 180 -65 69 -144 87 -382 87 l-180 0 0
-420z m384 226 c31 -20 42 -57 30 -104 -14 -53 -48 -73 -130 -75 l-69 -2 -3
104 -3 104 75 -5 c46 -3 85 -11 100 -22z"/>
<path d="M6860 830 l0 -420 100 0 100 0 0 78 c0 78 0 78 40 117 26 25 43 36
48 29 4 -6 38 -59 75 -117 l69 -107 109 0 c72 0 109 4 109 11 0 6 -54 89 -120
184 -66 95 -120 176 -120 180 0 3 50 60 110 126 61 66 110 124 110 130 0 5
-48 9 -109 9 l-110 0 -98 -105 c-54 -58 -101 -105 -105 -105 -5 0 -8 92 -8
205 l0 205 -100 0 -100 0 0 -420z"/>
<path d="M1350 1064 c-48 -9 -177 -56 -199 -73 l-23 -17 37 -67 c20 -37 38
-67 39 -67 1 0 29 11 62 24 79 32 133 40 183 26 38 -10 68 -40 54 -54 -3 -3
-19 -6 -35 -6 -46 0 -179 -30 -230 -52 -59 -25 -115 -85 -124 -133 -18 -97 23
-187 103 -226 66 -32 187 -24 261 16 45 24 55 27 63 14 5 -7 9 -20 9 -26 0
-10 24 -13 85 -13 l85 0 1 188 c1 255 0 270 -23 323 -39 92 -123 141 -248 145
-41 1 -86 0 -100 -2z m168 -411 c-2 -29 -10 -42 -36 -60 -47 -31 -115 -40
-147 -19 -69 45 13 113 138 115 l48 1 -3 -37z"/>
<path d="M2113 1059 c-116 -22 -214 -102 -253 -205 -31 -82 -25 -206 12 -280
51 -98 130 -153 252 -175 108 -18 262 18 316 76 l22 24 -37 60 c-21 34 -43 61
-48 61 -6 0 -31 -10 -56 -22 -63 -30 -146 -35 -191 -10 -42 22 -80 90 -80 142
0 52 38 120 80 142 46 24 123 23 179 -2 24 -11 47 -20 51 -20 4 0 27 28 50 62
l44 61 -35 29 c-66 55 -195 79 -306 57z"/>
<path d="M3470 1057 c-91 -26 -172 -97 -213 -185 -16 -36 -21 -68 -21 -137 -1
-81 2 -97 31 -156 57 -121 168 -183 323 -182 83 1 193 31 232 62 l23 20 -29
53 c-16 29 -32 57 -36 62 -5 4 -33 -1 -64 -13 -104 -39 -217 -17 -250 48 -9
16 -16 32 -16 36 0 3 92 5 204 5 l205 0 7 46 c20 134 -43 266 -151 319 -67 33
-173 42 -245 22z m175 -182 c14 -13 25 -33 25 -45 0 -19 -6 -20 -110 -20 -114
0 -125 5 -97 40 44 56 139 69 182 25z"/>
<path d="M4352 1055 c-51 -16 -119 -60 -134 -88 -14 -27 -28 -5 -28 46 l0 37
-90 0 -90 0 0 -320 0 -320 105 0 105 0 0 174 0 174 45 50 c58 64 94 77 195 68
l77 -6 17 80 c10 43 15 84 11 89 -18 30 -141 39 -213 16z"/>
<path d="M5566 1054 c-79 -19 -176 -63 -176 -81 0 -13 57 -133 63 -133 2 0 31
11 65 25 85 35 157 41 202 18 19 -10 36 -26 38 -35 3 -14 -4 -18 -32 -18 -95
0 -267 -54 -309 -98 -77 -80 -73 -207 9 -284 41 -38 75 -48 158 -48 63 0 83 5
139 33 l66 33 10 -28 10 -29 83 3 83 3 3 185 c3 195 -6 278 -39 341 -54 107
-207 153 -373 113z m204 -404 c0 -36 -4 -41 -39 -60 -59 -29 -116 -36 -146
-16 -31 20 -32 38 -2 70 25 29 72 44 140 45 l47 1 0 -40z"/>
<path d="M6417 1056 c-21 -8 -56 -26 -77 -40 -22 -14 -42 -26 -44 -26 -3 0 -6
12 -8 28 -3 27 -3 27 -90 30 l-88 3 0 -321 0 -320 105 0 105 0 0 208 c0 203 1
209 23 230 50 47 122 51 152 9 12 -17 15 -61 15 -234 l0 -213 106 0 106 0 -4
248 c-4 265 -9 294 -61 351 -51 56 -157 76 -240 47z"/>
</g>
</svg>
